<?xml version="1.0" encoding="utf-8"?>
<svg viewBox="0 0 100 100" xmlns="http://www.w3.org/2000/svg">
  <defs>
    <linearGradient id="sw-gradient" x1="0" x2="1" y1="1" y2="0">
      <stop id="stop1" stop-color="rgba(218, 18, 18, 1)" offset="0"/>
      <stop id="stop2" stop-color="rgba(218, 18, 18, 1)" offset="1"/>
    </linearGradient>
  </defs>
  <path fill="url(#sw-gradient)" d="M 64.875 4.911 C 71.434 2.689 78.663 6.585 79.404 13.406 C 80.145 20.222 74.395 29.966 70.967 36.156 C 67.443 42.372 66.167 45.157 66.17 48.963 C 66.175 52.771 67.461 57.605 67.105 65.001 C 66.75 72.395 64.88 82.427 60.948 82.772 C 56.921 83.137 51.027 73.768 43.109 71.28 C 35.214 68.883 25.322 73.464 21.67 71.166 C 18.02 68.868 20.637 59.783 19.465 52.042 C 18.293 44.296 13.427 37.872 15.219 33.828 C 17.109 29.764 25.655 28.087 31.942 26.86 C 38.232 25.63 42.187 24.972 47.232 20.343 C 52.203 15.832 58.239 7.254 64.875 4.911 Z" width="100%" height="100%" stroke-width="0" style="transition: all 0.3s ease 0s;" stroke="url(#sw-gradient)"/>
</svg>