<!--?xml version="1.0" standalone="no"?-->
              <svg id="sw-js-blob-svg" viewBox="0 0 100 100" xmlns="http://www.w3.org/2000/svg" version="1.1">
                    <defs> 
                        <linearGradient id="sw-gradient" x1="0" x2="1" y1="1" y2="0">
                            <stop id="stop1" stop-color="rgba(218, 18, 18, 1)" offset="0%"></stop>
                            <stop id="stop2" stop-color="rgba(218, 18, 18, 1)" offset="100%"></stop>
                        </linearGradient>
                    </defs>
                <path fill="url(#sw-gradient)" d="M22.7,-34.6C29.6,-35.2,35.7,-29.7,34.8,-22.9C33.9,-16.1,26,-8,21.2,-2.8C16.3,2.4,14.4,4.8,13.5,8.5C12.6,12.2,12.7,17.2,10.6,24.3C8.5,31.4,4.3,40.7,0.4,40.1C-3.6,39.5,-7.1,29,-14.2,24.7C-21.3,20.5,-32,22.6,-35,19.5C-38,16.4,-33.3,8.2,-32.6,0.4C-31.9,-7.4,-35.1,-14.8,-32.4,-18.3C-29.6,-21.8,-20.9,-21.4,-14.5,-21.1C-8.1,-20.8,-4.1,-20.5,1.9,-23.8C7.8,-27,15.7,-33.9,22.7,-34.6Z" width="100%" height="100%" transform="translate(50 50)" stroke-width="0" style="transition: all 0.3s ease 0s;" stroke="url(#sw-gradient)"></path>
              </svg>