<!--?xml version="1.0" standalone="no"?-->
              <svg id="sw-js-blob-svg" viewBox="0 0 100 100" xmlns="http://www.w3.org/2000/svg" version="1.1">
                    <defs> 
                        <linearGradient id="sw-gradient" x1="0" x2="1" y1="1" y2="0">
                            <stop id="stop1" stop-color="rgba(218, 17, 17, 1)" offset="0%"></stop>
                            <stop id="stop2" stop-color="rgba(218, 17, 17, 1)" offset="100%"></stop>
                        </linearGradient>
                    </defs>
                <path fill="url(#sw-gradient)" d="M18.9,-32.9C25,-29.2,30.9,-25.2,32.6,-19.7C34.3,-14.1,31.8,-7.1,27.5,-2.5C23.2,2.1,17.2,4.3,13.3,6C9.4,7.8,7.7,9.1,5.9,16.1C4,23.2,2,35.9,0.6,34.9C-0.8,33.8,-1.6,19,-7.7,14.4C-13.8,9.8,-25.1,15.4,-30.6,14.8C-36.1,14.1,-35.6,7,-29.7,3.4C-23.9,-0.3,-12.6,-0.5,-10.7,-7.3C-8.7,-14.1,-16.2,-27.5,-16,-34.6C-15.8,-41.6,-7.9,-42.2,-0.7,-41C6.4,-39.7,12.8,-36.5,18.9,-32.9Z" width="100%" height="100%" transform="translate(50 50)" stroke-width="0" style="transition: all 0.3s ease 0s;"></path>
              </svg>